<svg width="25" height="22" viewBox="0 0 25 22" fill="none" xmlns="http://www.w3.org/2000/svg">
<path d="M1.38889 21.9679C0.995375 21.9679 0.665745 21.7922 0.400005 21.4407C0.134264 21.0892 0.000930715 20.6547 4.78926e-06 20.1373C-0.000921136 19.6198 0.132412 19.1853 0.400005 18.8338C0.667597 18.4824 0.997227 18.3066 1.38889 18.3066H23.6111C24.0046 18.3066 24.3347 18.4824 24.6014 18.8338C24.868 19.1853 25.0009 19.6198 25 20.1373C24.9991 20.6547 24.8657 21.0898 24.6 21.4425C24.3343 21.7952 24.0046 21.9704 23.6111 21.9679H1.38889ZM1.38889 12.8146C0.995375 12.8146 0.665745 12.6389 0.400005 12.2874C0.134264 11.9359 0.000930715 11.5014 4.78926e-06 10.984C-0.000921136 10.4665 0.132412 10.032 0.400005 9.68054C0.667597 9.32905 0.997227 9.15331 1.38889 9.15331H23.6111C24.0046 9.15331 24.3347 9.32905 24.6014 9.68054C24.868 10.032 25.0009 10.4665 25 10.984C24.9991 11.5014 24.8657 11.9365 24.6 12.2892C24.3343 12.6419 24.0046 12.8171 23.6111 12.8146H1.38889ZM1.38889 3.66132C0.995375 3.66132 0.665745 3.48558 0.400005 3.13409C0.134264 2.78261 0.000930715 2.34813 4.78926e-06 1.83066C-0.000921136 1.31319 0.132412 0.878718 0.400005 0.527231C0.667597 0.175744 0.997227 0 1.38889 0H23.6111C24.0046 0 24.3347 0.175744 24.6014 0.527231C24.868 0.878718 25.0009 1.31319 25 1.83066C24.9991 2.34813 24.8657 2.78322 24.6 3.13592C24.3343 3.48863 24.0046 3.66376 23.6111 3.66132H1.38889Z" fill="#F7F7F7"/>
</svg>
