<svg width="15" height="19" viewBox="0 0 15 19" fill="none" xmlns="http://www.w3.org/2000/svg">
<path fill-rule="evenodd" clip-rule="evenodd" d="M7.5 11C8.42826 11 9.3185 10.6313 9.97487 9.97487C10.6313 9.3185 11 8.42826 11 7.5C11 6.57174 10.6313 5.6815 9.97487 5.02513C9.3185 4.36875 8.42826 4 7.5 4C6.57174 4 5.6815 4.36875 5.02513 5.02513C4.36875 5.6815 4 6.57174 4 7.5C4 8.42826 4.36875 9.3185 5.02513 9.97487C5.6815 10.6313 6.57174 11 7.5 11ZM7.5 6C7.89782 6 8.27936 6.15804 8.56066 6.43934C8.84196 6.72064 9 7.10218 9 7.5C9 7.89782 8.84196 8.27936 8.56066 8.56066C8.27936 8.84196 7.89782 9 7.5 9C7.10218 9 6.72064 8.84196 6.43934 8.56066C6.15804 8.27936 6 7.89782 6 7.5C6 7.10218 6.15804 6.72064 6.43934 6.43934C6.72064 6.15804 7.10218 6 7.5 6Z" fill="#1D6BF3"/>
<path fill-rule="evenodd" clip-rule="evenodd" d="M0 7.623C0 11.866 4.382 19 7.5 19C10.618 19 15 11.866 15 7.623C15 3.417 11.646 0 7.5 0C3.354 0 0 3.417 0 7.623ZM13 7.623C13 10.903 9.255 17 7.5 17C5.745 17 2 10.903 2 7.623C2 4.513 4.467 2 7.5 2C10.533 2 13 4.513 13 7.623Z" fill="#1D6BF3"/>
</svg>
