<svg width="24" height="24" viewBox="0 0 24 24" fill="none" xmlns="http://www.w3.org/2000/svg">
<rect width="24" height="24" rx="12" fill="#3C6FF6"/>
<path d="M11.9932 17.1367C9.87402 17.1367 8.37012 15.9883 8.3291 14.3203H10.1201C10.1748 15.1133 10.9678 15.6328 11.9932 15.6328C13.0869 15.6328 13.8662 15.0312 13.8662 14.1562C13.8662 13.2676 13.1006 12.625 11.8154 12.625H10.9268V11.2578H11.8154C12.8682 11.2578 13.6064 10.6699 13.5928 9.80859C13.6064 8.97461 12.9775 8.41406 12.0068 8.41406C11.0771 8.41406 10.2705 8.93359 10.2432 9.76758H8.53418C8.5752 8.09961 10.0791 6.96484 12.0205 6.96484C14.0303 6.96484 15.3291 8.19531 15.3154 9.71289C15.3291 10.8203 14.5908 11.627 13.5107 11.8457V11.9277C14.9053 12.1191 15.6982 13.0078 15.6846 14.252C15.6982 15.9199 14.1396 17.1367 11.9932 17.1367Z" fill="white"/>
</svg>
