<svg width="19" height="18" viewBox="0 0 19 18" fill="none" xmlns="http://www.w3.org/2000/svg">
<path d="M17.99 6.02445L12.6175 5.56251L10.5196 0.668161C10.1422 -0.22272 8.85456 -0.22272 8.47716 0.668161L6.37922 5.57351L1.01784 6.02445C0.0410235 6.10144 -0.358583 7.31128 0.385129 7.94919L4.45889 11.4467L3.23787 16.638C3.01587 17.5839 4.04819 18.3318 4.8918 17.8259L9.49837 15.0762L14.1049 17.8369C14.9486 18.3428 15.9809 17.5949 15.7589 16.649L14.5379 11.4467L18.6116 7.94919C19.3553 7.31128 18.9668 6.10144 17.99 6.02445ZM9.49837 13.0195L5.32471 15.5162L6.43473 10.8088L2.74947 7.64123L7.61134 7.22329L9.49837 2.79088L11.3965 7.23429L16.2584 7.65223L12.5731 10.8198L13.6831 15.5272L9.49837 13.0195Z" fill="#1D6BF3"/>
</svg>
