<svg width="21" height="21" viewBox="0 0 21 21" fill="none" xmlns="http://www.w3.org/2000/svg">
<path d="M19.6201 7.97825C19.5381 7.72602 19.3832 7.50372 19.1751 7.33935C18.9669 7.17498 18.7147 7.07589 18.4504 7.05457L13.6105 6.6641L11.7419 2.145C11.6408 1.89876 11.4688 1.68813 11.2477 1.53989C11.0266 1.39165 10.7665 1.3125 10.5003 1.3125C10.2341 1.3125 9.97398 1.39165 9.7529 1.53989C9.53183 1.68813 9.35983 1.89876 9.25877 2.145L7.39174 6.66328L2.54943 7.05457C2.28462 7.07697 2.0323 7.17702 1.82409 7.34218C1.61588 7.50734 1.46105 7.73028 1.37898 7.98305C1.29691 8.23582 1.29126 8.50719 1.36274 8.76316C1.43422 9.01913 1.57965 9.24831 1.7808 9.422L5.47221 12.6073L4.34756 17.37C4.28551 17.6286 4.30149 17.8998 4.39348 18.1493C4.48547 18.3988 4.64935 18.6155 4.86441 18.7719C5.07947 18.9283 5.33607 19.0175 5.60178 19.0281C5.8675 19.0388 6.13042 18.9705 6.35732 18.8318L10.4999 16.2823L14.6449 18.8318C14.8718 18.9697 15.1344 19.0374 15.3997 19.0263C15.6649 19.0152 15.921 18.926 16.1356 18.7697C16.3502 18.6134 16.5138 18.3971 16.6057 18.148C16.6977 17.8989 16.7138 17.6282 16.6522 17.37L15.5235 12.6064L19.2149 9.42118C19.4177 9.24778 19.5644 9.0181 19.6366 8.76123C19.7087 8.50436 19.703 8.23186 19.6201 7.97825ZM18.3618 8.42696L14.3669 11.8723C14.2758 11.9508 14.208 12.0528 14.1709 12.1673C14.1339 12.2817 14.129 12.4041 14.1569 12.5211L15.3775 17.6727C15.3806 17.6798 15.381 17.6878 15.3784 17.6952C15.3758 17.7025 15.3705 17.7085 15.3635 17.7121C15.3488 17.7236 15.3447 17.7211 15.3324 17.7121L10.8436 14.9517C10.7401 14.8886 10.6211 14.8554 10.4999 14.8557V2.62489C10.5196 2.62489 10.5221 2.63145 10.5286 2.64621L12.5507 7.53528C12.5968 7.64703 12.673 7.74386 12.7707 7.81508C12.8684 7.88629 12.9839 7.92914 13.1044 7.93887L18.347 8.36215C18.3601 8.36215 18.3675 8.36215 18.3749 8.38594C18.3823 8.40973 18.3749 8.41875 18.3618 8.42696Z" fill="#1D6BF3"/>
</svg>
