<svg width="89" height="15" viewBox="0 0 89 15" fill="none" xmlns="http://www.w3.org/2000/svg">
<path d="M11.7969 0V14.1406H9.25781L3.04688 5.15625H2.92969V14.1406H0V0H2.57812L8.75 8.98438H8.88672V0H11.7969ZM18.9258 14.3555C15.6738 14.3457 13.6816 12.2461 13.6914 8.88672C13.6816 5.61523 15.7031 3.39844 18.8086 3.39844C21.5918 3.39844 23.7891 5.15625 23.7891 8.76953V9.58984H16.543C16.543 11.1914 17.4902 12.1777 18.9844 12.1875C19.9707 12.1777 20.6738 11.748 20.957 11.1133H23.7109C23.3008 13.0762 21.543 14.3457 18.9258 14.3555ZM16.543 7.77344H21.0547C21.0449 6.48438 20.1562 5.55664 18.8672 5.56641C17.5391 5.55664 16.6016 6.55273 16.543 7.77344ZM27.832 3.53516L29.8047 7.26562L31.8164 3.53516H34.8047L31.6992 8.82812L34.8828 14.1406H31.9141L29.8047 10.4492L27.7344 14.1406H24.7266L27.8906 8.82812L24.8438 3.53516H27.832ZM42.0312 3.53516V5.70312H40.0391V10.8789C40.0293 11.7285 40.4492 11.9336 41.0352 11.9531C41.3281 11.9531 41.8359 11.9238 42.1875 11.8945V14.1797C41.875 14.2285 41.3574 14.2871 40.6445 14.2773C38.5547 14.2871 37.1289 13.3496 37.1484 11.2891V5.70312H35.6836V3.53516H37.1484V0.996094H40.0391V3.53516H42.0312ZM48.5156 14.1406V0H54.0625C57.2754 0 59.1211 1.98242 59.1211 4.76562C59.1211 7.58789 57.2461 9.53125 53.9844 9.53125H51.4453V14.1406H48.5156ZM51.4453 7.16797H53.5156C55.2539 7.16797 56.1035 6.19141 56.0938 4.76562C56.1035 3.35938 55.2539 2.41211 53.5156 2.40234H51.4453V7.16797ZM64.3555 0L64.1016 9.90234H61.6016L61.3477 0H64.3555ZM61.2305 12.6758C61.2109 11.7773 61.9531 11.0449 62.8711 11.0547C63.7402 11.0449 64.4922 11.7773 64.4922 12.6758C64.4922 13.584 63.7402 14.3164 62.8711 14.3164C61.9531 14.3164 61.2109 13.584 61.2305 12.6758ZM71.8164 14.3555C68.5645 14.3457 66.6113 12.0996 66.6211 8.86719C66.6113 5.625 68.6035 3.39844 71.8164 3.39844C74.5508 3.39844 76.4062 4.99023 76.5234 7.42188H73.8086C73.6328 6.37695 72.9492 5.6543 71.8555 5.64453C70.4688 5.6543 69.5508 6.81641 69.5508 8.82812C69.5508 10.8789 70.4492 12.0508 71.8555 12.0508C72.8711 12.0508 73.623 11.416 73.8086 10.293H76.5234C76.3965 12.6953 74.6289 14.3457 71.8164 14.3555ZM78.3203 14.1406V0H81.2109V7.59766H81.3672L84.8047 3.53516H88.125L84.1699 8.125L88.3398 14.1406H84.9414L82.0215 9.82422L81.2109 10.7422V14.1406H78.3203Z" fill="#9DA2A8"/>
</svg>
