<svg width="21" height="25" viewBox="0 0 21 25" fill="none" xmlns="http://www.w3.org/2000/svg">
<path fill-rule="evenodd" clip-rule="evenodd" d="M4.2 6.25C4.2 4.5924 4.86375 3.00269 6.04523 1.83058C7.22671 0.65848 8.82914 0 10.5 0C12.1709 0 13.7733 0.65848 14.9548 1.83058C16.1363 3.00269 16.8 4.5924 16.8 6.25C16.8 7.9076 16.1363 9.49731 14.9548 10.6694C13.7733 11.8415 12.1709 12.5 10.5 12.5C8.82914 12.5 7.22671 11.8415 6.04523 10.6694C4.86375 9.49731 4.2 7.9076 4.2 6.25ZM0 25V23.9583C0 21.4719 0.995622 19.0874 2.76784 17.3292C4.54006 15.5711 6.9437 14.5833 9.45 14.5833H11.55C14.0563 14.5833 16.4599 15.5711 18.2322 17.3292C20.0044 19.0874 21 21.4719 21 23.9583V25H0Z" fill="#C6FF35"/>
</svg>
