<svg width="21" height="23" viewBox="0 0 21 23" fill="none" xmlns="http://www.w3.org/2000/svg">
<path d="M5 10.125H7.25V12.375H5V10.125ZM5 14.625H7.25V16.875H5V14.625ZM9.5 10.125H11.75V12.375H9.5V10.125ZM9.5 14.625H11.75V16.875H9.5V14.625ZM14 10.125H16.25V12.375H14V10.125ZM14 14.625H16.25V16.875H14V14.625Z" fill="white"/>
<path d="M2.25 22.5H18C19.2409 22.5 20.25 21.4909 20.25 20.25V4.5C20.25 3.25912 19.2409 2.25 18 2.25H15.75V0H13.5V2.25H6.75V0H4.5V2.25H2.25C1.00912 2.25 0 3.25912 0 4.5V20.25C0 21.4909 1.00912 22.5 2.25 22.5ZM18 6.75L18.0011 20.25H2.25V6.75H18Z" fill="white"/>
</svg>
