<svg width="21" height="18" viewBox="0 0 21 18" fill="none" xmlns="http://www.w3.org/2000/svg">
<path d="M17.91 1.13625C17.685 0.4725 17.055 0 16.3125 0H3.9375C3.195 0 2.57625 0.4725 2.34 1.13625L0 7.875V16.875C0 17.4938 0.50625 18 1.125 18H2.25C2.86875 18 3.375 17.4938 3.375 16.875V15.75H16.875V16.875C16.875 17.4938 17.3812 18 18 18H19.125C19.7438 18 20.25 17.4938 20.25 16.875V7.875L17.91 1.13625ZM3.9375 12.375C3.00375 12.375 2.25 11.6212 2.25 10.6875C2.25 9.75375 3.00375 9 3.9375 9C4.87125 9 5.625 9.75375 5.625 10.6875C5.625 11.6212 4.87125 12.375 3.9375 12.375ZM16.3125 12.375C15.3788 12.375 14.625 11.6212 14.625 10.6875C14.625 9.75375 15.3788 9 16.3125 9C17.2462 9 18 9.75375 18 10.6875C18 11.6212 17.2462 12.375 16.3125 12.375ZM2.25 6.75L3.9375 1.6875H16.3125L18 6.75H2.25Z" fill="#C6FF35"/>
</svg>
