<svg width="23" height="25" viewBox="0 0 23 25" fill="none" xmlns="http://www.w3.org/2000/svg">
<path d="M7.88893 3.879C8.56168 1.91025 11.2819 1.85063 12.0796 3.70013L12.1471 3.88013L13.0549 6.53513C13.263 7.14401 13.5992 7.7012 14.0409 8.1691C14.4826 8.637 15.0195 9.00474 15.6154 9.2475L15.8595 9.33862L18.5146 10.2454C20.4833 10.9181 20.5429 13.6384 18.6946 14.436L18.5146 14.5035L15.8595 15.4114C15.2505 15.6193 14.693 15.9555 14.2249 16.3972C13.7568 16.8389 13.3889 17.3759 13.1461 17.9719L13.0549 18.2149L12.1482 20.871C11.4754 22.8398 8.75517 22.8994 7.95867 21.051L7.88893 20.871L6.98217 18.216C6.77425 17.6069 6.43809 17.0495 5.99638 16.5814C5.55467 16.1133 5.01769 15.7454 4.42168 15.5025L4.17868 15.4114L1.52367 14.5046C-0.4462 13.8319 -0.505825 11.1116 1.34368 10.3151L1.52367 10.2454L4.17868 9.33862C4.78756 9.13056 5.34475 8.79434 5.81265 8.35264C6.28055 7.91094 6.64829 7.37403 6.89105 6.77812L6.98217 6.53513L7.88893 3.879ZM19.0186 2.03273e-07C19.229 -2.65469e-07 19.4353 0.0590381 19.6138 0.170405C19.7924 0.281773 19.9362 0.441003 20.0288 0.63L20.0828 0.761625L20.4766 1.91588L21.6319 2.30963C21.8428 2.38128 22.0277 2.51394 22.1632 2.69079C22.2986 2.86764 22.3785 3.08072 22.3927 3.30302C22.407 3.52533 22.3549 3.74685 22.243 3.93951C22.1312 4.13217 21.9647 4.28731 21.7647 4.38525L21.6319 4.43925L20.4777 4.833L20.0839 5.98837C20.0121 6.19923 19.8794 6.38404 19.7025 6.51937C19.5255 6.6547 19.3124 6.73447 19.0901 6.74856C18.8679 6.76266 18.6464 6.71045 18.4538 6.59855C18.2612 6.48665 18.1061 6.3201 18.0083 6.12L17.9543 5.98837L17.5606 4.83412L16.4052 4.44038C16.1943 4.36872 16.0094 4.23606 15.8739 4.05921C15.7385 3.88236 15.6586 3.66928 15.6444 3.44698C15.6301 3.22467 15.6822 3.00315 15.7941 2.81049C15.9059 2.61783 16.0724 2.46269 16.2724 2.36475L16.4052 2.31075L17.5594 1.917L17.9532 0.761625C18.029 0.539354 18.1726 0.346397 18.3636 0.209811C18.5547 0.0732251 18.7837 -0.000140942 19.0186 2.03273e-07Z" fill="#C6FF35"/>
</svg>
