<svg width="20" height="20" viewBox="0 0 20 20" fill="none" xmlns="http://www.w3.org/2000/svg">
<g clip-path="url(#clip0_334_1022)">
<path d="M20 7.08333C20 6.75181 19.8683 6.43387 19.6339 6.19945C19.3995 5.96503 19.0815 5.83333 18.75 5.83333C18.75 5.83333 18.2633 5.83333 18.2292 5.84C17.606 4.68544 16.8921 3.58225 16.0942 2.54083C15.6778 1.99941 15.1008 1.60359 14.4458 1.41C12.9783 0.696667 7.02167 0.696667 5.55417 1.41C4.89917 1.60359 4.3222 1.99941 3.90583 2.54083C3.10787 3.58225 2.39396 4.68544 1.77083 5.84C1.73667 5.83333 1.25 5.83333 1.25 5.83333C0.918479 5.83333 0.600537 5.96503 0.366116 6.19945C0.131696 6.43387 0 6.75181 0 7.08333L0 12.5C0.000161115 13.085 0.154258 13.6596 0.446811 14.1661C0.739365 14.6727 1.16007 15.0934 1.66667 15.3858V16.6667C1.66667 17.3297 1.93006 17.9656 2.3989 18.4344C2.86774 18.9033 3.50363 19.1667 4.16667 19.1667C4.82971 19.1667 5.46559 18.9033 5.93443 18.4344C6.40327 17.9656 6.66667 17.3297 6.66667 16.6667V15.8333H13.3333V16.6667C13.3333 17.3297 13.5967 17.9656 14.0656 18.4344C14.5344 18.9033 15.1703 19.1667 15.8333 19.1667C16.4964 19.1667 17.1323 18.9033 17.6011 18.4344C18.0699 17.9656 18.3333 17.3297 18.3333 16.6667V15.3858C18.8399 15.0934 19.2606 14.6727 19.5532 14.1661C19.8457 13.6596 19.9998 13.085 20 12.5V7.08333ZM5.22833 3.555C5.43248 3.29172 5.71447 3.09955 6.03417 3.00583C7.3 2.38 12.7008 2.38 13.9658 3.00583C14.2855 3.09955 14.5675 3.29172 14.7717 3.555C16.0372 5.21438 17.0794 7.03269 17.8717 8.96333C12.6515 8.20166 7.34847 8.20166 2.12833 8.96333C2.92058 7.03269 3.96282 5.21438 5.22833 3.555ZM5 16.6667C5 16.8877 4.9122 17.0996 4.75592 17.2559C4.59964 17.4122 4.38768 17.5 4.16667 17.5C3.94565 17.5 3.73369 17.4122 3.57741 17.2559C3.42113 17.0996 3.33333 16.8877 3.33333 16.6667V15.8333H5V16.6667ZM16.6667 16.6667C16.6667 16.8877 16.5789 17.0996 16.4226 17.2559C16.2663 17.4122 16.0543 17.5 15.8333 17.5C15.6123 17.5 15.4004 17.4122 15.2441 17.2559C15.0878 17.0996 15 16.8877 15 16.6667V15.8333H16.6667V16.6667ZM16.6667 14.1667H3.33333C2.89131 14.1667 2.46738 13.9911 2.15482 13.6785C1.84226 13.366 1.66667 12.942 1.66667 12.5V10.7142C4.42563 10.2924 7.2095 10.0538 10 10C12.7905 10.0538 15.5744 10.2924 18.3333 10.7142V12.5C18.3333 12.942 18.1577 13.366 17.8452 13.6785C17.5326 13.9911 17.1087 14.1667 16.6667 14.1667ZM5 12.5C5 12.721 4.9122 12.933 4.75592 13.0893C4.59964 13.2455 4.38768 13.3333 4.16667 13.3333C3.94565 13.3333 3.73369 13.2455 3.57741 13.0893C3.42113 12.933 3.33333 12.721 3.33333 12.5C3.33333 12.279 3.42113 12.067 3.57741 11.9107C3.73369 11.7545 3.94565 11.6667 4.16667 11.6667C4.38768 11.6667 4.59964 11.7545 4.75592 11.9107C4.9122 12.067 5 12.279 5 12.5ZM16.6667 12.5C16.6667 12.721 16.5789 12.933 16.4226 13.0893C16.2663 13.2455 16.0543 13.3333 15.8333 13.3333C15.6123 13.3333 15.4004 13.2455 15.2441 13.0893C15.0878 12.933 15 12.721 15 12.5C15 12.279 15.0878 12.067 15.2441 11.9107C15.4004 11.7545 15.6123 11.6667 15.8333 11.6667C16.0543 11.6667 16.2663 11.7545 16.4226 11.9107C16.5789 12.067 16.6667 12.279 16.6667 12.5Z" fill="#3F6DCB"/>
</g>
<defs>
<clipPath id="clip0_334_1022">
<rect width="20" height="20" fill="white"/>
</clipPath>
</defs>
</svg>
