<svg width="80" height="80" viewBox="0 0 80 80" fill="none" xmlns="http://www.w3.org/2000/svg">
<path d="M47.2006 35.0472C46.7011 33.5488 45.2027 32.5498 43.7043 32.5498H16.233C14.4849 32.5498 13.2362 33.5488 12.7367 35.0472L7.49219 50.0315V70.0106C7.49219 71.2593 8.74088 72.508 9.98957 72.508H12.487C13.9854 72.508 14.9843 71.2593 14.9843 70.0106V67.5132H44.953V70.0106C44.953 71.2593 46.2016 72.508 47.4503 72.508H49.9477C51.1964 72.508 52.4451 71.2593 52.4451 70.0106V50.0315L47.2006 35.0472ZM16.9822 37.5446H42.7053L45.4524 45.0367H14.4849L16.9822 37.5446ZM47.4503 62.5184H12.487V50.0315H47.4503V62.5184ZM18.7304 52.5289C20.7283 52.5289 22.4765 54.277 22.4765 56.275C22.4765 58.2729 20.7283 60.021 18.7304 60.021C16.7325 60.021 14.9843 58.2729 14.9843 56.275C14.9843 54.277 16.7325 52.5289 18.7304 52.5289ZM41.2069 52.5289C43.2048 52.5289 44.953 54.277 44.953 56.275C44.953 58.2729 43.2048 60.021 41.2069 60.021C39.209 60.021 37.4608 58.2729 37.4608 56.275C37.4608 54.277 39.209 52.5289 41.2069 52.5289Z" fill="black"/>
<path d="M76.0097 35.3524L69.5455 28.9406C72.0547 25.812 73.2698 21.841 72.9411 17.844C72.6123 13.847 70.7646 10.1279 67.778 7.4514C64.7913 4.77489 60.8926 3.34442 56.8837 3.45412C52.8747 3.56382 49.0601 5.20535 46.2243 8.04118C43.3885 10.877 41.7469 14.6916 41.6372 18.7006C41.5275 22.7095 42.958 26.6082 45.6345 29.5948C48.311 32.5815 52.0301 34.4292 56.0271 34.758C60.0241 35.0867 63.9951 33.8716 67.1237 31.3624L73.5356 37.7743C73.6975 37.9376 73.8902 38.0673 74.1026 38.1557C74.3149 38.2442 74.5426 38.2897 74.7726 38.2897C75.0026 38.2897 75.2304 38.2442 75.4427 38.1557C75.655 38.0673 75.8477 37.9376 76.0097 37.7743C76.3237 37.4494 76.4993 37.0153 76.4993 36.5634C76.4993 36.1115 76.3237 35.6773 76.0097 35.3524ZM57.349 31.3624C54.9368 31.3624 52.5787 30.6471 50.573 29.307C48.5673 27.9668 47.004 26.0619 46.0809 23.8333C45.1578 21.6047 44.9162 19.1524 45.3868 16.7865C45.8574 14.4206 47.0191 12.2474 48.7248 10.5417C50.4305 8.83595 52.6037 7.67434 54.9696 7.20373C57.3355 6.73313 59.7878 6.97466 62.0164 7.89779C64.2451 8.82091 66.1499 10.3842 67.4901 12.3899C68.8302 14.3956 69.5455 16.7537 69.5455 19.1659C69.5455 22.4006 68.2606 25.5029 65.9733 27.7902C63.686 30.0775 60.5837 31.3624 57.349 31.3624Z" fill="black"/>
</svg>
