<svg width="20" height="20" viewBox="0 0 20 20" fill="none" xmlns="http://www.w3.org/2000/svg">
<g clip-path="url(#clip0_334_1008)">
<path d="M20 5.7875C19.9764 4.49738 19.452 3.26702 18.5375 2.35667L16.4225 0.244167C16.2653 0.0923683 16.0548 0.00837295 15.8363 0.0102716C15.6178 0.0121703 15.4088 0.0998111 15.2543 0.254318C15.0998 0.408825 15.0122 0.617835 15.0103 0.836332C15.0084 1.05483 15.0924 1.26533 15.2442 1.4225L16.6667 2.845V5C16.6667 5.44203 16.8423 5.86595 17.1548 6.17851C17.4674 6.49107 17.8913 6.66667 18.3333 6.66667V15C18.3333 15.221 18.2455 15.433 18.0893 15.5893C17.933 15.7455 17.721 15.8333 17.5 15.8333C17.279 15.8333 17.067 15.7455 16.9107 15.5893C16.7545 15.433 16.6667 15.221 16.6667 15V14.1667C16.6667 13.5036 16.4033 12.8677 15.9344 12.3989C15.4656 11.9301 14.8297 11.6667 14.1667 11.6667H13.3333V4.16667C13.332 3.062 12.8926 2.00296 12.1115 1.22185C11.3304 0.440735 10.2713 0.00132321 9.16667 0L4.16667 0C3.062 0.00132321 2.00296 0.440735 1.22185 1.22185C0.440735 2.00296 0.00132321 3.062 0 4.16667L0 15.8333C0.00132321 16.938 0.440735 17.997 1.22185 18.7782C2.00296 19.5593 3.062 19.9987 4.16667 20H9.16667C10.2713 19.9987 11.3304 19.5593 12.1115 18.7782C12.8926 17.997 13.332 16.938 13.3333 15.8333V13.3333H14.1667C14.3877 13.3333 14.5996 13.4211 14.7559 13.5774C14.9122 13.7337 15 13.9457 15 14.1667V15C15 15.663 15.2634 16.2989 15.7322 16.7678C16.2011 17.2366 16.837 17.5 17.5 17.5C18.163 17.5 18.7989 17.2366 19.2678 16.7678C19.7366 16.2989 20 15.663 20 15C20 15 20 5.8025 20 5.7875ZM4.16667 1.66667H9.16667C9.82971 1.66667 10.4656 1.93006 10.9344 2.3989C11.4033 2.86774 11.6667 3.50363 11.6667 4.16667V7.5H1.66667V4.16667C1.66667 3.50363 1.93006 2.86774 2.3989 2.3989C2.86774 1.93006 3.50363 1.66667 4.16667 1.66667ZM11.6667 15.8333C11.6667 16.4964 11.4033 17.1323 10.9344 17.6011C10.4656 18.0699 9.82971 18.3333 9.16667 18.3333H4.16667C3.50363 18.3333 2.86774 18.0699 2.3989 17.6011C1.93006 17.1323 1.66667 16.4964 1.66667 15.8333V9.16667H11.6667V15.8333Z" fill="#3F6DCB"/>
</g>
<defs>
<clipPath id="clip0_334_1008">
<rect width="20" height="20" fill="white"/>
</clipPath>
</defs>
</svg>
