<svg width="32" height="32" viewBox="0 0 32 32" fill="none" xmlns="http://www.w3.org/2000/svg">
<path d="M21.3334 22.6669V25.3335H2.66675V22.6669C2.66675 22.6669 2.66675 17.3335 12.0001 17.3335C21.3334 17.3335 21.3334 22.6669 21.3334 22.6669ZM16.6667 10.0002C16.6667 9.07723 16.3931 8.17498 15.8803 7.40755C15.3675 6.64012 14.6387 6.04198 13.7859 5.68877C12.9332 5.33557 11.9949 5.24315 11.0897 5.42321C10.1844 5.60328 9.35289 6.04774 8.70025 6.70038C8.0476 7.35303 7.60315 8.18455 7.42308 9.08979C7.24302 9.99504 7.33543 10.9333 7.68864 11.7861C8.04185 12.6388 8.63999 13.3676 9.40742 13.8804C10.1748 14.3932 11.0771 14.6669 12.0001 14.6669C13.2378 14.6669 14.4247 14.1752 15.2999 13.3C16.1751 12.4249 16.6667 11.2379 16.6667 10.0002ZM21.2534 17.3335C22.0731 17.9679 22.7438 18.7741 23.2183 19.6956C23.6929 20.617 23.9597 21.6312 24.0001 22.6669V25.3335H29.3334V22.6669C29.3334 22.6669 29.3334 17.8269 21.2534 17.3335ZM20.0001 5.33355C19.0825 5.32928 18.1851 5.60359 17.4267 6.12021C18.2367 7.25186 18.6722 8.60859 18.6722 10.0002C18.6722 11.3918 18.2367 12.7486 17.4267 13.8802C18.1851 14.3968 19.0825 14.6711 20.0001 14.6669C21.2378 14.6669 22.4247 14.1752 23.2999 13.3C24.1751 12.4249 24.6667 11.2379 24.6667 10.0002C24.6667 8.76253 24.1751 7.57555 23.2999 6.70038C22.4247 5.82521 21.2378 5.33355 20.0001 5.33355Z" fill="black"/>
</svg>
