<svg width="32" height="32" viewBox="0 0 32 32" fill="none" xmlns="http://www.w3.org/2000/svg">
<path d="M27.3593 28.4999C25.6456 28.4936 24.0065 27.3715 24.0122 24.049C24.018 20.9836 25.3533 19.1719 27.428 19.1719C29.0958 19.1719 30.2421 20.3253 30.4083 21.8173H28.7118C28.5743 21.1842 28.0986 20.7892 27.428 20.7892C26.299 20.7892 25.7087 21.8988 25.6972 23.6854H25.7774C26.1614 22.8767 26.981 22.4066 27.898 22.4066C29.3938 22.4066 30.5057 23.629 30.5 25.3404C30.5057 27.1834 29.2334 28.5061 27.3593 28.4999ZM25.8691 25.3905C25.8806 26.2807 26.4996 27.0141 27.3478 27.0079C28.2017 27.0141 28.8264 26.3058 28.8264 25.3905C28.8264 24.4815 28.2132 23.7794 27.3707 23.7732C26.5225 23.7794 25.8806 24.5066 25.8691 25.3905Z" fill="black"/>
<path d="M16.9858 28.3745L16.9743 27.0079L19.9545 24.0114C20.7283 23.2027 21.1466 22.7012 21.1466 21.9803C21.1466 21.1716 20.5907 20.6701 19.8285 20.6764C19.049 20.6701 18.5389 21.2092 18.5447 22.0806H16.9055C16.8998 20.3065 18.1034 19.1719 19.8514 19.1719C21.6281 19.1719 22.8087 20.2815 22.8087 21.8549C22.8087 22.8893 22.3502 23.7356 20.6423 25.4281L19.3814 26.7697V26.8198H22.9233V28.3745H16.9858Z" fill="black"/>
<path d="M11.4736 15.9678C13.9573 15.9678 16.2282 16.4216 17.9736 17.1719C17.8217 17.2789 17.6745 17.3956 17.5332 17.5215C16.4614 18.4765 15.9041 19.8188 15.9092 21.2744L15.918 23.4482H1.5V20.9541C1.50042 18.199 5.96342 15.9679 11.4736 15.9678ZM20.7432 20.0039C20.7749 19.9931 20.8075 19.9823 20.8408 19.9736L20.8496 19.9717C20.8134 19.9811 20.7777 19.9921 20.7432 20.0039ZM11.4736 3.5C12.7963 3.5 14.0648 4.02571 15 4.96094C15.9352 5.89618 16.4609 7.16467 16.4609 8.4873C16.4609 9.80983 15.9352 11.0785 15 12.0137C14.0648 12.9487 12.7961 13.4736 11.4736 13.4736C10.1511 13.4735 8.88242 12.9488 7.94727 12.0137C7.01211 11.0785 6.48739 9.80982 6.4873 8.4873C6.4873 7.16483 7.01223 5.89615 7.94727 4.96094C8.88242 4.02578 10.1511 3.5001 11.4736 3.5Z" fill="black"/>
</svg>
