<svg width="24" height="24" viewBox="0 0 24 24" fill="none" xmlns="http://www.w3.org/2000/svg">
<path d="M11.6625 4.91252L13.5375 3.03752C14.0251 2.54999 14.6038 2.16326 15.2408 1.89941C15.8778 1.63556 16.5605 1.49976 17.25 1.49976C17.9395 1.49976 18.6222 1.63556 19.2592 1.89941C19.8962 2.16326 20.475 2.54999 20.9625 3.03752C21.4501 3.52506 21.8368 4.10384 22.1006 4.74083C22.3645 5.37783 22.5003 6.06055 22.5003 6.75002C22.5003 7.4395 22.3645 8.12222 22.1006 8.75922C21.8368 9.39621 21.4501 9.97499 20.9625 10.4625L17.2125 14.2125C16.725 14.7001 16.1462 15.0868 15.5092 15.3507C14.8722 15.6146 14.1895 15.7504 13.5 15.7504C12.8105 15.7504 12.1278 15.6146 11.4908 15.3507C10.8538 15.0868 10.275 14.7001 9.78753 14.2125C9.58856 13.9993 9.48017 13.7172 9.48521 13.4256C9.49024 13.134 9.60832 12.8557 9.81452 12.6495C10.0207 12.4433 10.299 12.3252 10.5906 12.3202C10.8822 12.3152 11.1643 12.4236 11.3775 12.6225C11.6561 12.9015 11.987 13.1227 12.3512 13.2737C12.7154 13.4247 13.1058 13.5024 13.5 13.5024C13.8943 13.5024 14.2847 13.4247 14.6488 13.2737C15.013 13.1227 15.3439 12.9015 15.6225 12.6225L19.3725 8.87252C19.9081 8.3041 20.2011 7.54941 20.1895 6.76854C20.1778 5.98767 19.8625 5.24204 19.3102 4.68981C18.758 4.13759 18.0124 3.82222 17.2315 3.81059C16.4506 3.79896 15.6959 4.09199 15.1275 4.62752L13.2525 6.50252C13.0393 6.70149 12.7572 6.80988 12.4656 6.80484C12.174 6.7998 11.8957 6.68173 11.6895 6.47552C11.4833 6.2693 11.3652 5.99107 11.3602 5.69948C11.3552 5.40789 11.4636 5.12574 11.6625 4.91252ZM4.62752 19.3725C4.90614 19.6515 5.23701 19.8727 5.6012 20.0237C5.9654 20.1747 6.35578 20.2524 6.75002 20.2524C7.14427 20.2524 7.53465 20.1747 7.89884 20.0237C8.26304 19.8727 8.5939 19.6515 8.87252 19.3725L10.7475 17.4975C10.9607 17.2986 11.2429 17.1902 11.5345 17.1952C11.8261 17.2002 12.1043 17.3183 12.3105 17.5245C12.5167 17.7307 12.6348 18.009 12.6398 18.3006C12.6449 18.5922 12.5365 18.8743 12.3375 19.0875L10.4625 20.9625C9.97499 21.4501 9.39621 21.8368 8.75921 22.1006C8.12222 22.3645 7.4395 22.5003 6.75002 22.5003C6.06055 22.5003 5.37783 22.3645 4.74083 22.1006C4.10384 21.8368 3.52506 21.4501 3.03752 20.9625C2.54999 20.475 2.16326 19.8962 1.89941 19.2592C1.63556 18.6222 1.49976 17.9395 1.49976 17.25C1.49976 16.5605 1.63556 15.8778 1.89941 15.2408C2.16326 14.6038 2.54999 14.0251 3.03752 13.5375L6.78752 9.78753C7.27504 9.29996 7.85382 8.9132 8.49081 8.64933C9.12781 8.38546 9.81054 8.24965 10.5 8.24965C11.1895 8.24965 11.8722 8.38546 12.5092 8.64933C13.1462 8.9132 13.725 9.29996 14.2125 9.78753C14.4115 10.0007 14.5199 10.2829 14.5148 10.5745C14.5098 10.8661 14.3917 11.1443 14.1855 11.3505C13.9793 11.5567 13.7011 11.6748 13.4095 11.6798C13.1179 11.6849 12.8357 11.5765 12.6225 11.3775C12.3439 11.0986 12.013 10.8773 11.6488 10.7263C11.2847 10.5754 10.8943 10.4977 10.5 10.4977C10.1058 10.4977 9.7154 10.5754 9.3512 10.7263C8.98701 10.8773 8.65614 11.0986 8.37752 11.3775L4.62752 15.1275C4.34859 15.4061 4.12732 15.737 3.97634 16.1012C3.82537 16.4654 3.74766 16.8558 3.74766 17.25C3.74766 17.6443 3.82537 18.0347 3.97634 18.3988C4.12732 18.763 4.34859 19.0939 4.62752 19.3725Z" fill="#343434"/>
</svg>
