<svg width="32" height="32" viewBox="0 0 32 32" fill="none" xmlns="http://www.w3.org/2000/svg">
<path d="M4.00008 28C3.64646 28 3.30732 27.8595 3.05727 27.6095C2.80722 27.3594 2.66675 27.0203 2.66675 26.6667C2.66675 26.313 2.80722 25.9739 3.05727 25.7239C3.30732 25.4738 3.64646 25.3333 4.00008 25.3333V8C4.00008 6.93913 4.42151 5.92172 5.17165 5.17157C5.9218 4.42143 6.93922 4 8.00008 4H16.0001C17.0609 4 18.0784 4.42143 18.8285 5.17157C19.5787 5.92172 20.0001 6.93913 20.0001 8V13.3333C21.0609 13.3333 22.0784 13.7548 22.8285 14.5049C23.5787 15.2551 24.0001 16.2725 24.0001 17.3333V21.3333C24.0001 21.5101 24.0703 21.6797 24.1953 21.8047C24.3204 21.9298 24.4899 22 24.6667 22C24.8436 22 25.0131 21.9298 25.1382 21.8047C25.2632 21.6797 25.3334 21.5101 25.3334 21.3333V13.3333C24.6262 13.3333 23.9479 13.0524 23.4478 12.5523C22.9477 12.0522 22.6667 11.3739 22.6667 10.6667V9.88667L21.7241 8.94267C21.4945 8.71308 21.3566 8.40761 21.3362 8.08358C21.3159 7.75954 21.4144 7.43921 21.6134 7.18267L21.7241 7.05733C21.9741 6.80737 22.3132 6.66695 22.6667 6.66695C23.0203 6.66695 23.3594 6.80737 23.6094 7.05733L27.6134 11.06L27.7401 11.2093L27.7774 11.2627L27.8361 11.36L27.9054 11.5067L27.9467 11.6267L27.9734 11.728L27.9894 11.832L28.0001 12V21.3333C28.0001 22.2174 27.6489 23.0652 27.0238 23.6904C26.3986 24.3155 25.5508 24.6667 24.6667 24.6667C23.7827 24.6667 22.9348 24.3155 22.3097 23.6904C21.6846 23.0652 21.3334 22.2174 21.3334 21.3333V17.3333C21.3334 16.9797 21.1929 16.6406 20.9429 16.3905C20.6928 16.1405 20.3537 16 20.0001 16V25.3333C20.3537 25.3333 20.6928 25.4738 20.9429 25.7239C21.1929 25.9739 21.3334 26.313 21.3334 26.6667C21.3334 27.0203 21.1929 27.3594 20.9429 27.6095C20.6928 27.8595 20.3537 28 20.0001 28H4.00008ZM16.0001 6.66667H8.00008C7.64646 6.66667 7.30732 6.80714 7.05727 7.05719C6.80722 7.30724 6.66675 7.64638 6.66675 8V13.3333H17.3334V8C17.3334 7.64638 17.1929 7.30724 16.9429 7.05719C16.6928 6.80714 16.3537 6.66667 16.0001 6.66667Z" fill="black"/>
</svg>
