<svg width="32" height="32" viewBox="0 0 32 32" fill="none" xmlns="http://www.w3.org/2000/svg">
<path d="M31.0002 19.377V28.4999H29.1272V21.1789H29.0776L27.0186 22.4893V20.8134L29.2388 19.377H31.0002Z" fill="black"/>
<path d="M19.3776 28.5L19.3652 27.1265L22.5902 24.1149C23.4274 23.3021 23.8802 22.7981 23.8802 22.0736C23.8802 21.2608 23.2786 20.7568 22.4537 20.7631C21.6103 20.7568 21.0583 21.2986 21.0645 22.1744H19.2908C19.2846 20.3913 20.587 19.251 22.4786 19.251C24.4011 19.251 25.6787 20.3661 25.6787 21.9475C25.6787 22.9871 25.1826 23.8377 23.3344 25.5388L21.97 26.8871V26.9375H25.8028V28.5H19.3776Z" fill="black"/>
<path d="M12.4014 16.502C14.9912 16.502 17.3585 16.9765 19.1787 17.7588C19.0208 17.8701 18.8677 17.9912 18.7207 18.1221C17.6028 19.1181 17.022 20.5189 17.0273 22.0371L17.0361 24.3027H2V21.7031C2 18.8297 6.65459 16.502 12.4014 16.502ZM22.8027 24.3027H22.374L22.7529 23.9541C22.7698 23.938 22.7862 23.9211 22.8027 23.9053V24.3027ZM21.583 19.2578C22.037 19.6832 22.3763 20.1432 22.5801 20.6289C21.7502 20.6378 21.2097 21.1717 21.2158 22.0283H19.4277C19.4227 20.6099 20.2659 19.6019 21.583 19.2578ZM12.4014 3.5C13.7807 3.5 15.1038 4.0481 16.0791 5.02344C17.0544 5.99876 17.6025 7.32189 17.6025 8.70117C17.6024 10.0803 17.0542 11.4027 16.0791 12.3779C15.1038 13.3533 13.7807 13.9014 12.4014 13.9014C11.0221 13.9013 9.69892 13.3532 8.72363 12.3779C7.74863 11.4027 7.20128 10.0802 7.20117 8.70117C7.20117 7.32198 7.74848 5.99874 8.72363 5.02344C9.69892 4.04815 11.0221 3.50005 12.4014 3.5Z" fill="black"/>
</svg>
