<svg width="32" height="32" viewBox="0 0 32 32" fill="none" xmlns="http://www.w3.org/2000/svg">
<path d="M23.3875 6.15V7.41H24.6562V12.45H25.925V6.15H23.3875ZM24.6562 3C25.4893 3 26.3142 3.16295 27.0839 3.47956C27.8536 3.79616 28.5529 4.26022 29.142 4.84523C29.731 5.43024 30.1983 6.12474 30.5171 6.88909C30.8359 7.65345 31 8.47267 31 9.3C31 10.9709 30.3316 12.5733 29.142 13.7548C27.9523 14.9363 26.3387 15.6 24.6562 15.6C23.8232 15.6 22.9983 15.437 22.2286 15.1204C21.4589 14.8038 20.7596 14.3398 20.1705 13.7548C18.9809 12.5733 18.3125 10.9709 18.3125 9.3C18.3125 7.62914 18.9809 6.02671 20.1705 4.84523C21.3602 3.66375 22.9738 3 24.6562 3Z" fill="black"/>
<path d="M17.4648 8.3999C17.4272 8.69698 17.4062 8.9977 17.4062 9.30029C17.4063 9.80849 17.4624 10.3107 17.5674 10.8003H7.2998L4.58105 17.9995H23.5859L22.9414 16.2935C23.5016 16.429 24.077 16.4995 24.6562 16.4995C24.9659 16.4995 25.2732 16.4776 25.5771 16.439L26.167 17.9995V28.8003C26.1669 29.1184 26.0389 29.423 25.8125 29.6479C25.5859 29.873 25.2785 29.9995 24.958 29.9995H23.75C23.4295 29.9995 23.1221 29.873 22.8955 29.6479C22.6692 29.423 22.5421 29.1183 22.542 28.8003V27.6001H5.625V28.8003C5.6249 29.1182 5.49772 29.423 5.27148 29.6479C5.04495 29.8729 4.73734 29.9994 4.41699 29.9995H3.20801C2.88766 29.9994 2.58005 29.8729 2.35352 29.6479C2.12728 29.423 2.0001 29.1182 2 28.8003V17.9995L5.03613 9.95752C5.20881 9.50003 5.51853 9.10597 5.92285 8.82764C6.32728 8.5493 6.80775 8.39984 7.2998 8.3999H17.4648ZM7.4375 20.3999C6.95685 20.3999 6.49615 20.5898 6.15625 20.9272C5.81639 21.2648 5.62505 21.7224 5.625 22.1997C5.625 22.6771 5.81634 23.1356 6.15625 23.4731C6.49612 23.8105 6.95699 23.9995 7.4375 23.9995C7.91801 23.9995 8.37888 23.8105 8.71875 23.4731C9.05866 23.1356 9.25 22.6771 9.25 22.1997C9.24995 21.7224 9.05861 21.2648 8.71875 20.9272C8.37885 20.5898 7.91815 20.3999 7.4375 20.3999ZM20.7295 20.3999C20.2488 20.3999 19.7872 20.5897 19.4473 20.9272C19.1075 21.2647 18.917 21.7225 18.917 22.1997C18.917 22.6771 19.1074 23.1356 19.4473 23.4731C19.7872 23.8107 20.2488 23.9995 20.7295 23.9995C21.21 23.9994 21.6709 23.8105 22.0107 23.4731C22.3507 23.1356 22.542 22.6771 22.542 22.1997C22.5419 21.7224 22.3506 21.2648 22.0107 20.9272C21.6709 20.5898 21.2101 20.4 20.7295 20.3999ZM20.8672 8.3999C21.3591 8.3999 21.8398 8.54935 22.2441 8.82764C22.6483 9.10595 22.9572 9.50014 23.1299 9.95752L25.25 15.5718C25.0534 15.5901 24.8553 15.6001 24.6562 15.6001C23.9355 15.6001 23.221 15.4777 22.543 15.2397L20.8672 10.8003H18.4961C18.3759 10.3132 18.3125 9.81007 18.3125 9.30029C18.3125 8.9973 18.3349 8.69631 18.3779 8.3999H20.8672Z" fill="black"/>
</svg>
