<svg width="32" height="32" viewBox="0 0 32 32" fill="none" xmlns="http://www.w3.org/2000/svg">
<path d="M23.1425 8.99145L24.5414 12.9956H18.7722V8.48917H22.429C22.7482 8.48917 23.0346 8.69102 23.1378 8.99145H23.1425ZM27.7616 13.0848L25.9825 8.00097C25.4521 6.49412 24.0297 5.48486 22.4337 5.48486H13.1438C11.9609 5.48486 10.8484 6.04348 10.1395 6.98701L5.62368 13.0097C2.48324 13.2069 0 15.8168 0 19.0042V19.7553C0 21.4124 1.34724 22.7596 3.0043 22.7596H3.77416C3.96193 24.8673 5.73165 26.515 7.8863 26.515C10.0409 26.515 11.8107 24.8673 11.9984 22.7596H18.791C18.9787 24.8673 20.7485 26.515 22.9031 26.515C25.0578 26.515 26.8275 24.8673 27.0153 22.7596H27.034C28.6911 22.7596 30.0383 21.4124 30.0383 19.7553V15.9999C30.0383 14.587 29.0666 13.404 27.7569 13.0848H27.7616ZM9.38845 12.9956L12.543 8.7896C12.6838 8.60183 12.9091 8.48917 13.1438 8.48917H16.5237V12.9956H9.38845ZM22.9078 24.2618C21.8704 24.2618 21.0301 23.4215 21.0301 22.3841C21.0301 21.3466 21.8704 20.5064 22.9078 20.5064C23.9452 20.5064 24.7855 21.3466 24.7855 22.3841C24.7855 23.4215 23.9452 24.2618 22.9078 24.2618ZM6.00861 22.3841C6.00861 21.3466 6.84887 20.5064 7.8863 20.5064C8.92372 20.5064 9.76398 21.3466 9.76398 22.3841C9.76398 23.4215 8.92372 24.2618 7.8863 24.2618C6.84887 24.2618 6.00861 23.4215 6.00861 22.3841Z" fill="black"/>
</svg>
