<svg width="32" height="32" viewBox="0 0 32 32" fill="none" xmlns="http://www.w3.org/2000/svg">
<path d="M21.2693 27.0241V20.6471H22.9252V21.7628H22.9956C23.2657 21.0171 23.9117 20.5649 24.769 20.5649C25.6439 20.5649 26.2957 21.0288 26.507 21.7628H26.5658C26.83 21.0406 27.5581 20.5649 28.4918 20.5649C29.672 20.5649 30.5 21.3459 30.5 22.7376V27.0241H28.7619V23.0781C28.7677 22.35 28.3332 21.9977 27.7636 21.9977C27.1119 21.9977 26.7243 22.4498 26.7302 23.1251V27.0241H25.0391V23.0312C25.0449 22.4029 24.6456 21.9977 24.0526 21.9977C23.4595 21.9977 23.0015 22.4733 23.0074 23.1956V27.0241H21.2693Z" fill="black"/>
<path d="M14.5635 27.024V18.5215H16.3016V23.0898H16.3955L18.4624 20.6471H20.4589L18.0808 23.4069L20.5881 27.024H18.5446L16.7889 24.4286L16.3016 24.9806V27.024H14.5635Z" fill="black"/>
<path d="M1.5 17.6787C1.5 19.797 5.28551 21.5869 9.76758 21.5869C10.6053 21.5869 11.4186 21.5247 12.1875 21.4092V24.3398C11.4186 24.4554 10.6053 24.5186 9.76758 24.5186C5.28576 24.5185 1.50043 22.7285 1.5 20.6104V17.6787ZM1.5 12.9941C1.50021 15.1667 5.17141 17.0029 9.51758 17.0029C10.4484 17.0029 11.3481 16.9174 12.1875 16.7637V19.7695C11.3481 19.9233 10.4484 20.0088 9.51758 20.0088C5.17128 20.0088 1.5 18.1726 1.5 16V12.9941ZM17.5342 16C17.5342 16.0892 17.5259 16.1776 17.5137 16.2656H14.0811C16.1523 15.5323 17.534 14.3269 17.5342 12.9941V16ZM9.76758 4.97656C14.2496 4.97656 18.035 6.7665 18.0352 8.88477V10.8389C18.0352 12.9572 14.2497 14.7471 9.76758 14.7471C5.28551 14.747 1.5 12.9572 1.5 10.8389V8.88477C1.50018 6.76652 5.28562 4.97659 9.76758 4.97656Z" fill="black"/>
</svg>
