<svg width="100" height="22" viewBox="0 0 100 22" fill="none" xmlns="http://www.w3.org/2000/svg">
<path d="M85.8545 20.0703V0.273438H89.9014V10.9102H90.1201L94.9326 5.22266H99.5811L94.0439 11.6484L99.8818 20.0703H95.124L91.0361 14.0273L89.9014 15.3125V20.0703H85.8545Z" fill="#2D2F33"/>
<path d="M77.5892 20.3711C73.0364 20.3574 70.3021 17.2129 70.3157 12.6875C70.3021 8.14844 73.0911 5.03125 77.5892 5.03125C81.4173 5.03125 84.0149 7.25977 84.179 10.6641H80.3782C80.1321 9.20117 79.1751 8.18945 77.6438 8.17578C75.7024 8.18945 74.4173 9.81641 74.4173 12.6328C74.4173 15.5039 75.6751 17.1445 77.6438 17.1445C79.0657 17.1445 80.1185 16.2559 80.3782 14.6836H84.179C84.0013 18.0469 81.5267 20.3574 77.5892 20.3711Z" fill="#2D2F33"/>
<path d="M68.0904 0.273438L67.7349 14.1367H64.2349L63.8794 0.273438H68.0904ZM63.7154 18.0195C63.688 16.7617 64.7271 15.7363 66.0122 15.75C67.229 15.7363 68.2818 16.7617 68.2818 18.0195C68.2818 19.291 67.229 20.3164 66.0122 20.3164C64.7271 20.3164 63.688 19.291 63.7154 18.0195Z" fill="#2D2F33"/>
<path d="M46.6479 20.0703V0.273438H54.4136C58.9116 0.273438 61.4956 3.04883 61.4956 6.94531C61.4956 10.8965 58.8706 13.6172 54.3042 13.6172H50.7495V20.0703H46.6479ZM50.7495 10.3086H53.6479C56.0815 10.3086 57.271 8.94141 57.2573 6.94531C57.271 4.97656 56.0815 3.65039 53.6479 3.63672H50.7495V10.3086Z" fill="#2D2F33"/>
<path d="M34.4958 20.0703V5.22266H38.406V7.79297H38.5701C39.1033 5.97461 40.4841 5.00391 42.1521 5.00391C42.5623 5.00391 43.0818 5.05859 43.4373 5.14062V8.75C43.0544 8.62695 42.2751 8.53125 41.7146 8.53125C39.8826 8.53125 38.5291 9.80273 38.5427 11.6211V20.0703H34.4958Z" fill="#2D2F33"/>
<path d="M19.0115 15.9141C19.0251 12.6055 21.6775 11.5254 24.5349 11.3477C25.6013 11.2793 27.5974 11.1836 28.2263 11.1562V9.95312C28.2126 8.70898 27.365 7.99805 25.8474 7.98438C24.4666 7.99805 23.6052 8.61328 23.3865 9.625H19.531C19.7771 7.05469 22.0193 5.03125 25.9568 5.03125C29.197 5.03125 32.2595 6.48047 32.2458 10.0625V20.0703H28.4177V18.0195H28.3083C27.5837 19.3867 26.1619 20.3574 23.9607 20.3438C21.1169 20.3574 19.0251 18.8535 19.0115 15.9141ZM22.8943 15.8047C22.8943 16.9395 23.8103 17.541 25.1091 17.5547C26.9548 17.541 28.24 16.3379 28.2263 14.7656V13.6855C27.6111 13.7129 25.8748 13.8086 25.1912 13.8633C23.783 13.9863 22.8943 14.6562 22.8943 15.8047Z" fill="#2D2F33"/>
<path d="M13.6172 7.16406C13.2891 4.97656 11.6074 3.65039 9.29688 3.63672C6.2207 3.65039 4.18359 6.00195 4.18359 10.1719C4.18359 14.4375 6.24805 16.6934 9.26953 16.707C11.5254 16.6934 13.2207 15.4629 13.6172 13.3164L17.7734 13.3438C17.3223 17.0078 14.2461 20.3438 9.21484 20.3438C3.92383 20.3438 0 16.6113 0 10.1719C0 3.70508 3.99219 0 9.21484 0C13.7812 0 17.2266 2.61133 17.7734 7.16406H13.6172Z" fill="#2D2F33"/>
<circle cx="65.7148" cy="18.0703" r="3" fill="#C6FF35"/>
</svg>
