<svg width="24" height="24" viewBox="0 0 24 24" fill="none" xmlns="http://www.w3.org/2000/svg">
<rect x="0.5" y="0.5" width="23" height="23" rx="11.5" fill="white"/>
<rect x="0.5" y="0.5" width="23" height="23" rx="11.5" stroke="#D4D4D8"/>
<path d="M8.60254 17V15.7148L12.1025 12.3379C13.1006 11.3398 13.6201 10.752 13.6201 9.91797C13.6201 9.00195 12.8955 8.41406 11.9248 8.41406C10.8994 8.41406 10.2432 9.05664 10.2568 10.0547H8.56152C8.54785 8.18164 9.95605 6.96484 11.9385 6.96484C13.9619 6.96484 15.3291 8.16797 15.3291 9.83594C15.3291 10.957 14.7822 11.8594 12.8408 13.6914L11.0771 15.4414V15.5098H15.4795V17H8.60254Z" fill="#AAAAAA"/>
</svg>
