<svg width="19" height="18" viewBox="0 0 19 18" fill="none" xmlns="http://www.w3.org/2000/svg">
<path d="M4.31977 17.5951C4.03477 17.5951 3.73477 17.5051 3.49477 17.3251C3.25837 17.1597 3.0784 16.9257 2.97915 16.6548C2.87991 16.3839 2.86616 16.0891 2.93977 15.8101L4.13977 11.3101L0.524766 8.35508C0.301124 8.17419 0.138153 7.92924 0.0577178 7.65308C-0.0227174 7.37692 -0.0167687 7.08276 0.0747657 6.81008C0.254766 6.25508 0.749766 5.86508 1.34977 5.83508L5.99977 5.59508L7.67977 1.24508C7.88977 0.690078 8.41477 0.330078 8.99977 0.330078C9.58477 0.330078 10.1098 0.690078 10.3198 1.23008L11.9998 5.59508L16.6648 5.85008C16.9519 5.86389 17.2281 5.96459 17.4568 6.13886C17.6854 6.31312 17.8557 6.55273 17.9452 6.82594C18.0346 7.09916 18.039 7.3931 17.9576 7.66884C17.8763 7.94459 17.7132 8.18913 17.4898 8.37008L13.8598 11.2951L15.0598 15.7951C15.1317 16.0721 15.1186 16.3644 15.0221 16.6338C14.9256 16.9033 14.7501 17.1374 14.5187 17.3058C14.2872 17.4741 14.0104 17.5688 13.7243 17.5776C13.4382 17.5864 13.1561 17.5089 12.9148 17.3551L8.99977 14.8201L5.08477 17.3551C4.84477 17.5051 4.57477 17.5951 4.31977 17.5951Z" fill="#1D6BF3"/>
</svg>
